REM DIRINDEX 1\2,1\3,1\4,1\5
REM DIRNAME cjc004,folder01,folder02,folder03,folder04
TITLE ""
FILE "1Q_t_0642-0651.mp3" MP3
  TRACK 01 AUDIO
    TITLE "3:cjc004_2828"
    INDEX 01 00:00:00
  TRACK 02 AUDIO
    TITLE "0:"
    INDEX 01 00:01:09
  TRACK 03 AUDIO
    TITLE "4:cjc004_2829"
    INDEX 01 00:01:40
  TRACK 04 AUDIO
    TITLE "0:"
    INDEX 01 00:02:49
  TRACK 05 AUDIO
    TITLE "5:cjc004_2830"
    INDEX 01 00:02:73
  TRACK 06 AUDIO
    TITLE "0:"
    INDEX 01 00:08:40
  TRACK 07 AUDIO
    TITLE "3:cjc004_2831"
    INDEX 01 00:09:14
  TRACK 08 AUDIO
    TITLE "0:"
    INDEX 01 00:10:37
  TRACK 09 AUDIO
    TITLE "4:cjc004_2832"
    INDEX 01 00:10:66
  TRACK 10 AUDIO
    TITLE "0:"
    INDEX 01 00:12:14
  TRACK 11 AUDIO
    TITLE "5:cjc004_2833"
    INDEX 01 00:12:40
  TRACK 12 AUDIO
    TITLE "0:"
    INDEX 01 00:17:16
  TRACK 13 AUDIO
    TITLE "3:cjc004_2834"
    INDEX 01 00:17:70
  TRACK 14 AUDIO
    TITLE "0:"
    INDEX 01 00:19:18
  TRACK 15 AUDIO
    TITLE "4:cjc004_2835"
    INDEX 01 00:19:42
  TRACK 16 AUDIO
    TITLE "0:"
    INDEX 01 00:20:55
  TRACK 17 AUDIO
    TITLE "5:cjc004_2836"
    INDEX 01 00:21:06
  TRACK 18 AUDIO
    TITLE "0:"
    INDEX 01 00:24:31
  TRACK 19 AUDIO
    TITLE "3:cjc004_2837"
    INDEX 01 00:25:07
  TRACK 20 AUDIO
    TITLE "0:"
    INDEX 01 00:26:15
  TRACK 21 AUDIO
    TITLE "4:cjc004_2838"
    INDEX 01 00:26:46
  TRACK 22 AUDIO
    TITLE "0:"
    INDEX 01 00:28:29
  TRACK 23 AUDIO
    TITLE "5:cjc004_2839"
    INDEX 01 00:28:49
  TRACK 24 AUDIO
    TITLE "0:"
    INDEX 01 00:33:30
  TRACK 25 AUDIO
    TITLE "3:cjc004_2840"
    INDEX 01 00:34:04
  TRACK 26 AUDIO
    TITLE "0:"
    INDEX 01 00:35:10
  TRACK 27 AUDIO
    TITLE "4:cjc004_2841"
    INDEX 01 00:35:35
  TRACK 28 AUDIO
    TITLE "0:"
    INDEX 01 00:36:50
  TRACK 29 AUDIO
    TITLE "5:cjc004_2842"
    INDEX 01 00:36:70
  TRACK 30 AUDIO
    TITLE "0:"
    INDEX 01 00:41:08
  TRACK 31 AUDIO
    TITLE "3:cjc004_2843"
    INDEX 01 00:41:61
  TRACK 32 AUDIO
    TITLE "0:"
    INDEX 01 00:43:03
  TRACK 33 AUDIO
    TITLE "4:cjc004_2844"
    INDEX 01 00:43:35
  TRACK 34 AUDIO
    TITLE "0:"
    INDEX 01 00:44:61
  TRACK 35 AUDIO
    TITLE "5:cjc004_2845"
    INDEX 01 00:45:12
  TRACK 36 AUDIO
    TITLE "0:"
    INDEX 01 00:49:41
  TRACK 37 AUDIO
    TITLE "3:cjc004_2846"
    INDEX 01 00:50:19
  TRACK 38 AUDIO
    TITLE "0:"
    INDEX 01 00:51:28
  TRACK 39 AUDIO
    TITLE "4:cjc004_2847"
    INDEX 01 00:51:52
  TRACK 40 AUDIO
    TITLE "0:"
    INDEX 01 00:53:39
  TRACK 41 AUDIO
    TITLE "5:cjc004_2848"
    INDEX 01 00:53:66
  TRACK 42 AUDIO
    TITLE "0:"
    INDEX 01 00:58:13
  TRACK 43 AUDIO
    TITLE "3:cjc004_2849"
    INDEX 01 00:58:69
  TRACK 44 AUDIO
    TITLE "0:"
    INDEX 01 00:59:63
  TRACK 45 AUDIO
    TITLE "4:cjc004_2850"
    INDEX 01 01:00:17
  TRACK 46 AUDIO
    TITLE "0:"
    INDEX 01 01:01:25
  TRACK 47 AUDIO
    TITLE "5:cjc004_2851"
    INDEX 01 01:01:44
  TRACK 48 AUDIO
    TITLE "0:"
    INDEX 01 01:05:36
  TRACK 49 AUDIO
    TITLE "3:cjc004_2852"
    INDEX 01 01:06:08
  TRACK 50 AUDIO
    TITLE "0:"
    INDEX 01 01:07:31
  TRACK 51 AUDIO
    TITLE "4:cjc004_2853"
    INDEX 01 01:07:59
  TRACK 52 AUDIO
    TITLE "0:"
    INDEX 01 01:09:09
  TRACK 53 AUDIO
    TITLE "5:cjc004_2854"
    INDEX 01 01:09:32
  TRACK 54 AUDIO
    TITLE "0:"
    INDEX 01 01:14:17
  TRACK 55 AUDIO
    TITLE "3:cjc004_2855"
    INDEX 01 01:14:68
  TRACK 56 AUDIO
    TITLE "0:"
    INDEX 01 01:16:16
  TRACK 57 AUDIO
    TITLE "4:cjc004_2856"
    INDEX 01 01:16:44
  TRACK 58 AUDIO
    TITLE "0:"
    INDEX 01 01:17:53
  TRACK 59 AUDIO
    TITLE "5:cjc004_2857"
    INDEX 01 01:18:00
  TRACK 60 AUDIO
    TITLE "0:"
    INDEX 01 01:22:37
